<mxfile host="65bd71144e">
    <diagram name="Page-1" id="oDAY63M7m2QtCf4eCxBP">
        <mxGraphModel dx="2159" dy="689" grid="0" gridSize="10" guides="1" tooltips="1" connect="1" arrows="1" fold="1" page="0" pageScale="1" pageWidth="827" pageHeight="1169" math="0" shadow="0">
            <root>
                <mxCell id="0"/>
                <mxCell id="1" parent="0"/>
                <mxCell id="cRKU6SqvKn0iAp5fmQL1-1" value="SegmentDisplay" style="swimlane;fontStyle=1;align=center;verticalAlign=top;childLayout=stackLayout;horizontal=1;startSize=26;horizontalStack=0;resizeParent=1;resizeParentMax=0;resizeLast=0;collapsible=1;marginBottom=0;whiteSpace=wrap;html=1;" parent="1" vertex="1">
                    <mxGeometry x="80" y="40" width="160" height="86" as="geometry"/>
                </mxCell>
                <mxCell id="cRKU6SqvKn0iAp5fmQL1-2" value="+ Size : int" style="text;strokeColor=none;fillColor=none;align=left;verticalAlign=top;spacingLeft=4;spacingRight=4;overflow=hidden;rotatable=0;points=[[0,0.5],[1,0.5]];portConstraint=eastwest;whiteSpace=wrap;html=1;" parent="cRKU6SqvKn0iAp5fmQL1-1" vertex="1">
                    <mxGeometry y="26" width="160" height="26" as="geometry"/>
                </mxCell>
                <mxCell id="cRKU6SqvKn0iAp5fmQL1-3" value="" style="line;strokeWidth=1;fillColor=none;align=left;verticalAlign=middle;spacingTop=-1;spacingLeft=3;spacingRight=3;rotatable=0;labelPosition=right;points=[];portConstraint=eastwest;strokeColor=inherit;" parent="cRKU6SqvKn0iAp5fmQL1-1" vertex="1">
                    <mxGeometry y="52" width="160" height="8" as="geometry"/>
                </mxCell>
                <mxCell id="cRKU6SqvKn0iAp5fmQL1-4" value="+ Print(string): void" style="text;strokeColor=none;fillColor=none;align=left;verticalAlign=top;spacingLeft=4;spacingRight=4;overflow=hidden;rotatable=0;points=[[0,0.5],[1,0.5]];portConstraint=eastwest;whiteSpace=wrap;html=1;" parent="cRKU6SqvKn0iAp5fmQL1-1" vertex="1">
                    <mxGeometry y="60" width="160" height="26" as="geometry"/>
                </mxCell>
                <mxCell id="cRKU6SqvKn0iAp5fmQL1-9" value="&amp;lt;Enum&amp;gt;&lt;br&gt;Segment" style="swimlane;fontStyle=1;align=center;verticalAlign=top;childLayout=stackLayout;horizontal=1;startSize=40;horizontalStack=0;resizeParent=1;resizeParentMax=0;resizeLast=0;collapsible=1;marginBottom=0;whiteSpace=wrap;html=1;fillColor=#d5e8d4;strokeColor=#82b366;" parent="1" vertex="1">
                    <mxGeometry x="90" y="197" width="160" height="248" as="geometry"/>
                </mxCell>
                <mxCell id="cRKU6SqvKn0iAp5fmQL1-10" value="TopBar = 1" style="text;strokeColor=none;fillColor=none;align=left;verticalAlign=top;spacingLeft=4;spacingRight=4;overflow=hidden;rotatable=0;points=[[0,0.5],[1,0.5]];portConstraint=eastwest;whiteSpace=wrap;html=1;" parent="cRKU6SqvKn0iAp5fmQL1-9" vertex="1">
                    <mxGeometry y="40" width="160" height="26" as="geometry"/>
                </mxCell>
                <mxCell id="cRKU6SqvKn0iAp5fmQL1-11" value="MiddleBar = 2" style="text;strokeColor=none;fillColor=none;align=left;verticalAlign=top;spacingLeft=4;spacingRight=4;overflow=hidden;rotatable=0;points=[[0,0.5],[1,0.5]];portConstraint=eastwest;whiteSpace=wrap;html=1;" parent="cRKU6SqvKn0iAp5fmQL1-9" vertex="1">
                    <mxGeometry y="66" width="160" height="26" as="geometry"/>
                </mxCell>
                <mxCell id="cRKU6SqvKn0iAp5fmQL1-12" value="BottomBar = 4" style="text;strokeColor=none;fillColor=none;align=left;verticalAlign=top;spacingLeft=4;spacingRight=4;overflow=hidden;rotatable=0;points=[[0,0.5],[1,0.5]];portConstraint=eastwest;whiteSpace=wrap;html=1;" parent="cRKU6SqvKn0iAp5fmQL1-9" vertex="1">
                    <mxGeometry y="92" width="160" height="26" as="geometry"/>
                </mxCell>
                <mxCell id="cRKU6SqvKn0iAp5fmQL1-13" value="TopLeftPipe = 8" style="text;strokeColor=none;fillColor=none;align=left;verticalAlign=top;spacingLeft=4;spacingRight=4;overflow=hidden;rotatable=0;points=[[0,0.5],[1,0.5]];portConstraint=eastwest;whiteSpace=wrap;html=1;" parent="cRKU6SqvKn0iAp5fmQL1-9" vertex="1">
                    <mxGeometry y="118" width="160" height="26" as="geometry"/>
                </mxCell>
                <mxCell id="cRKU6SqvKn0iAp5fmQL1-14" value="BottomLeftPipe = 16" style="text;strokeColor=none;fillColor=none;align=left;verticalAlign=top;spacingLeft=4;spacingRight=4;overflow=hidden;rotatable=0;points=[[0,0.5],[1,0.5]];portConstraint=eastwest;whiteSpace=wrap;html=1;" parent="cRKU6SqvKn0iAp5fmQL1-9" vertex="1">
                    <mxGeometry y="144" width="160" height="26" as="geometry"/>
                </mxCell>
                <mxCell id="cRKU6SqvKn0iAp5fmQL1-15" value="TopRightPipe = 32" style="text;strokeColor=none;fillColor=none;align=left;verticalAlign=top;spacingLeft=4;spacingRight=4;overflow=hidden;rotatable=0;points=[[0,0.5],[1,0.5]];portConstraint=eastwest;whiteSpace=wrap;html=1;" parent="cRKU6SqvKn0iAp5fmQL1-9" vertex="1">
                    <mxGeometry y="170" width="160" height="26" as="geometry"/>
                </mxCell>
                <mxCell id="cRKU6SqvKn0iAp5fmQL1-16" value="BottomRightPipe = 64" style="text;strokeColor=none;fillColor=none;align=left;verticalAlign=top;spacingLeft=4;spacingRight=4;overflow=hidden;rotatable=0;points=[[0,0.5],[1,0.5]];portConstraint=eastwest;whiteSpace=wrap;html=1;" parent="cRKU6SqvKn0iAp5fmQL1-9" vertex="1">
                    <mxGeometry y="196" width="160" height="26" as="geometry"/>
                </mxCell>
                <mxCell id="cRKU6SqvKn0iAp5fmQL1-17" value="Decimal = 128" style="text;strokeColor=none;fillColor=none;align=left;verticalAlign=top;spacingLeft=4;spacingRight=4;overflow=hidden;rotatable=0;points=[[0,0.5],[1,0.5]];portConstraint=eastwest;whiteSpace=wrap;html=1;" parent="cRKU6SqvKn0iAp5fmQL1-9" vertex="1">
                    <mxGeometry y="222" width="160" height="26" as="geometry"/>
                </mxCell>
                <mxCell id="cRKU6SqvKn0iAp5fmQL1-20" value="&lt;i&gt;DisplayDriver&lt;/i&gt;" style="swimlane;fontStyle=1;align=center;verticalAlign=top;childLayout=stackLayout;horizontal=1;startSize=26;horizontalStack=0;resizeParent=1;resizeParentMax=0;resizeLast=0;collapsible=1;marginBottom=0;whiteSpace=wrap;html=1;" parent="1" vertex="1">
                    <mxGeometry x="309" y="53" width="160" height="52" as="geometry"/>
                </mxCell>
                <mxCell id="cRKU6SqvKn0iAp5fmQL1-21" value="+ Register(Segment[]) : void" style="text;strokeColor=none;fillColor=none;align=left;verticalAlign=top;spacingLeft=4;spacingRight=4;overflow=hidden;rotatable=0;points=[[0,0.5],[1,0.5]];portConstraint=eastwest;whiteSpace=wrap;html=1;" parent="cRKU6SqvKn0iAp5fmQL1-20" vertex="1">
                    <mxGeometry y="26" width="160" height="26" as="geometry"/>
                </mxCell>
                <mxCell id="cRKU6SqvKn0iAp5fmQL1-23" value="Use" style="endArrow=open;endSize=12;dashed=1;html=1;rounded=0;" parent="1" source="cRKU6SqvKn0iAp5fmQL1-1" target="cRKU6SqvKn0iAp5fmQL1-20" edge="1">
                    <mxGeometry width="160" relative="1" as="geometry">
                        <mxPoint x="150" y="320" as="sourcePoint"/>
                        <mxPoint x="310" y="320" as="targetPoint"/>
                    </mxGeometry>
                </mxCell>
                <mxCell id="cRKU6SqvKn0iAp5fmQL1-29" value="TextDisplay" style="swimlane;fontStyle=1;align=center;verticalAlign=top;childLayout=stackLayout;horizontal=1;startSize=26;horizontalStack=0;resizeParent=1;resizeParentMax=0;resizeLast=0;collapsible=1;marginBottom=0;whiteSpace=wrap;html=1;" parent="1" vertex="1">
                    <mxGeometry x="303" y="150" width="160" height="52" as="geometry"/>
                </mxCell>
                <mxCell id="3" value="+ CurrentText : String" style="text;strokeColor=none;fillColor=none;align=left;verticalAlign=top;spacingLeft=4;spacingRight=4;overflow=hidden;rotatable=0;points=[[0,0.5],[1,0.5]];portConstraint=eastwest;whiteSpace=wrap;html=1;" parent="cRKU6SqvKn0iAp5fmQL1-29" vertex="1">
                    <mxGeometry y="26" width="160" height="26" as="geometry"/>
                </mxCell>
                <mxCell id="cRKU6SqvKn0iAp5fmQL1-32" value="" style="endArrow=block;dashed=1;endFill=0;endSize=12;html=1;rounded=0;" parent="1" source="cRKU6SqvKn0iAp5fmQL1-29" target="cRKU6SqvKn0iAp5fmQL1-20" edge="1">
                    <mxGeometry width="160" relative="1" as="geometry">
                        <mxPoint x="190" y="380" as="sourcePoint"/>
                        <mxPoint x="350" y="380" as="targetPoint"/>
                    </mxGeometry>
                </mxCell>
            </root>
        </mxGraphModel>
    </diagram>
</mxfile>